# xmcd CD database file
#
# Track frame offsets:
#	150
#	11422
#	25232
#	43512
#	60120
#	77625
#	89010
#	103292
#	115362
#	133682
#	152795
#	175717
#	194162
#	213857
#	235055
#
# Disc length: 3213 seconds
#
# Revision: 1
# Processed by: cddbd v1.5.2PL0 Copyright (c) Steve Scherf et al.
# Submitted via: CDex 1.51
#
DISCID=c30c8b0f
DTITLE=Robert Lockwood Jr. - The Legend Live
DYEAR=1900
DGENRE=Blues
TTITLE0=Meet Me In The Bottom
TTITLE1=Feel Like Blowin My Horn
TTITLE2=Mean Mistreater Mama
TTITLE3=She's Little And She's Low
TTITLE4=How Long Blues
TTITLE5=Sweet Home Chicago
TTITLE6=Exactly Like You
TTITLE7=Love In Vain
TTITLE8=From Four Until Late
TTITLE9=Ramblin On My Mind
TTITLE10=Big Leg Woman
TTITLE11=In The Evening
TTITLE12=Key To The Highway
TTITLE13=See See Rider
TTITLE14=Farewell Speech
EXTD=
EXTT0=
EXTT1=
EXTT2=
EXTT3=
EXTT4=
EXTT5=
EXTT6=
EXTT7=
EXTT8=
EXTT9=
EXTT10=
EXTT11=
EXTT12=
EXTT13=
EXTT14=
PLAYORDER=
